M48
; DRILL file {KiCad 9.0.7} date 2026-01-15T22:57:39-0700
; FORMAT={-:-/ absolute / metric / decimal}
; #@! TF.CreationDate,2026-01-15T22:57:39-07:00
; #@! TF.GenerationSoftware,Kicad,Pcbnew,9.0.7
; #@! TF.FileFunction,Plated,1,2,PTH
FMAT,2
METRIC
; #@! TA.AperFunction,Plated,PTH,ComponentDrill
T1C0.900
; #@! TA.AperFunction,Plated,PTH,ComponentDrill
T2C1.000
; #@! TA.AperFunction,Plated,PTH,ComponentDrill
T3C1.200
%
G90
G05
T1
X97.0Y-50.5
X97.0Y-53.04
X97.0Y-55.58
X97.0Y-58.12
X97.0Y-60.66
X97.0Y-63.2
X97.0Y-65.74
X97.0Y-68.28
X97.0Y-70.82
X97.0Y-73.36
X97.0Y-75.9
X97.0Y-78.44
X97.0Y-80.98
X97.0Y-83.52
X97.0Y-86.06
X119.86Y-50.5
X119.86Y-53.04
X119.86Y-55.58
X119.86Y-58.12
X119.86Y-60.66
X119.86Y-63.2
X119.86Y-65.74
X119.86Y-68.28
X119.86Y-70.82
X119.86Y-73.36
X119.86Y-75.9
X119.86Y-78.44
X119.86Y-80.98
X119.86Y-83.52
X119.86Y-86.06
T2
X88.475Y-82.25
X88.475Y-84.75
X127.0Y-60.38
X127.0Y-62.92
X127.0Y-65.46
X127.0Y-68.0
T3
X88.5Y-58.26
X88.5Y-73.5
M30
